<svg xmlns="http://www.w3.org/2000/svg" xmlns:xlink="http://www.w3.org/1999/xlink" preserveAspectRatio="xMidYMid" width="151" height="38" viewBox="0 0 151 38">
  <defs>
    <style>
      .cls-1 {
        fill: #fff;
      }

      .cls-1, .cls-2 {
        fill-rule: evenodd;
      }

      .cls-2 {
        fill: #fa2276;
      }
    </style>
  </defs>
  <g>
    <path d="M113.798,17.807 C113.521,18.076 113.174,18.210 112.758,18.210 L110.912,18.210 L110.912,25.256 C110.912,25.620 111.007,25.884 111.198,26.049 C111.389,26.214 111.649,26.296 111.978,26.296 C112.117,26.296 112.307,26.261 112.550,26.192 C112.758,26.105 112.957,26.062 113.148,26.062 C113.391,26.062 113.612,26.179 113.811,26.413 C114.010,26.647 114.110,26.955 114.110,27.336 C114.110,27.804 113.854,28.198 113.343,28.519 C112.832,28.840 112.255,29.000 111.614,29.000 C110.539,29.000 109.634,28.770 108.897,28.311 C108.160,27.852 107.792,26.877 107.792,25.386 L107.792,18.210 L106.596,18.210 C106.180,18.210 105.833,18.071 105.556,17.794 C105.279,17.517 105.140,17.170 105.140,16.754 C105.140,16.355 105.279,16.022 105.556,15.753 C105.833,15.484 106.180,15.350 106.596,15.350 L107.792,15.350 L107.792,13.686 C107.792,13.235 107.944,12.858 108.247,12.555 C108.550,12.252 108.927,12.100 109.378,12.100 C109.811,12.100 110.175,12.252 110.470,12.555 C110.765,12.858 110.912,13.235 110.912,13.686 L110.912,15.350 L112.758,15.350 C113.174,15.350 113.521,15.489 113.798,15.766 C114.075,16.043 114.214,16.390 114.214,16.806 C114.214,17.205 114.075,17.538 113.798,17.807 ZM102.442,13.400 C101.853,13.400 101.437,13.305 101.194,13.114 C100.951,12.923 100.830,12.585 100.830,12.100 L100.830,11.606 C100.830,11.121 100.960,10.783 101.220,10.592 C101.480,10.401 101.896,10.306 102.468,10.306 C103.075,10.306 103.499,10.401 103.742,10.592 C103.985,10.783 104.106,11.121 104.106,11.606 L104.106,12.100 C104.106,12.603 103.980,12.945 103.729,13.127 C103.478,13.309 103.049,13.400 102.442,13.400 ZM99.322,27.466 C99.322,27.899 99.157,28.272 98.828,28.584 C98.499,28.896 98.135,29.052 97.736,29.052 C97.233,29.052 96.809,28.827 96.462,28.376 L93.342,24.502 L90.300,28.376 C90.144,28.584 89.958,28.744 89.741,28.857 C89.524,28.970 89.295,29.026 89.052,29.026 C88.688,29.026 88.341,28.887 88.012,28.610 C87.683,28.333 87.518,28.012 87.518,27.648 C87.518,27.301 87.648,26.972 87.908,26.660 L91.522,22.240 L87.778,17.586 C87.553,17.309 87.440,16.997 87.440,16.650 C87.440,16.217 87.600,15.848 87.921,15.545 C88.242,15.242 88.610,15.090 89.026,15.090 C89.529,15.090 89.953,15.307 90.300,15.740 L93.498,19.718 L96.462,15.792 C96.791,15.324 97.207,15.090 97.710,15.090 C98.126,15.090 98.477,15.233 98.763,15.519 C99.049,15.805 99.192,16.130 99.192,16.494 C99.192,16.875 99.071,17.213 98.828,17.508 L95.240,21.876 L98.984,26.530 C99.209,26.807 99.322,27.119 99.322,27.466 ZM85.284,23.124 L76.704,23.124 C76.912,24.147 77.389,24.948 78.134,25.529 C78.879,26.110 79.720,26.400 80.656,26.400 C81.367,26.400 81.921,26.335 82.320,26.205 C82.719,26.075 83.035,25.936 83.269,25.789 C83.503,25.642 83.663,25.542 83.750,25.490 C84.062,25.334 84.357,25.256 84.634,25.256 C84.998,25.256 85.310,25.386 85.570,25.646 C85.830,25.906 85.960,26.209 85.960,26.556 C85.960,27.024 85.717,27.449 85.232,27.830 C84.747,28.229 84.097,28.567 83.282,28.844 C82.467,29.121 81.644,29.260 80.812,29.260 C79.356,29.260 78.086,28.957 77.003,28.350 C75.920,27.743 75.083,26.907 74.494,25.841 C73.905,24.775 73.610,23.575 73.610,22.240 C73.610,20.749 73.922,19.441 74.546,18.314 C75.170,17.187 75.993,16.325 77.016,15.727 C78.039,15.129 79.131,14.830 80.292,14.830 C81.436,14.830 82.515,15.142 83.529,15.766 C84.543,16.390 85.353,17.231 85.960,18.288 C86.567,19.345 86.870,20.489 86.870,21.720 C86.853,22.136 86.688,22.474 86.376,22.734 C86.064,22.994 85.700,23.124 85.284,23.124 ZM83.542,20.342 C83.473,19.614 83.117,18.990 82.476,18.470 C81.835,17.950 81.107,17.690 80.292,17.690 C78.281,17.690 77.094,18.635 76.730,20.524 L83.542,20.524 L83.542,20.342 ZM71.710,17.924 C71.450,17.924 71.155,17.863 70.826,17.742 C70.774,17.725 70.657,17.690 70.475,17.638 C70.293,17.586 70.098,17.560 69.890,17.560 C69.439,17.560 69.006,17.699 68.590,17.976 C68.174,18.253 67.832,18.674 67.563,19.237 C67.294,19.800 67.160,20.472 67.160,21.252 L67.160,27.414 C67.160,27.865 67.013,28.242 66.718,28.545 C66.423,28.848 66.051,29.000 65.600,29.000 C65.149,29.000 64.777,28.848 64.482,28.545 C64.187,28.242 64.040,27.865 64.040,27.414 L64.040,16.676 C64.040,16.225 64.187,15.848 64.482,15.545 C64.777,15.242 65.149,15.090 65.600,15.090 C66.051,15.090 66.423,15.242 66.718,15.545 C67.013,15.848 67.160,16.225 67.160,16.676 L67.160,17.014 C67.559,16.303 68.131,15.762 68.876,15.389 C69.621,15.016 70.419,14.830 71.268,14.830 C71.788,14.830 72.226,14.977 72.581,15.272 C72.936,15.567 73.114,15.913 73.114,16.312 C73.114,16.849 72.975,17.252 72.698,17.521 C72.421,17.790 72.091,17.924 71.710,17.924 ZM56.010,29.000 L49.536,29.000 C49.085,29.000 48.708,28.848 48.405,28.545 C48.102,28.242 47.950,27.865 47.950,27.414 L47.950,12.386 C47.950,11.935 48.102,11.558 48.405,11.255 C48.708,10.952 49.085,10.800 49.536,10.800 L56.088,10.800 C59.381,10.800 61.028,12.343 61.028,15.428 C61.028,16.208 60.842,16.897 60.469,17.495 C60.096,18.093 59.563,18.565 58.870,18.912 C59.789,19.276 60.538,19.831 61.119,20.576 C61.700,21.321 61.990,22.283 61.990,23.462 C61.990,25.525 61.401,26.963 60.222,27.778 C59.043,28.593 57.639,29.000 56.010,29.000 ZM57.115,14.401 C56.760,14.046 56.261,13.868 55.620,13.868 L51.330,13.868 L51.330,17.924 L55.698,17.924 C56.218,17.924 56.673,17.751 57.063,17.404 C57.453,17.057 57.648,16.589 57.648,16.000 C57.648,15.289 57.470,14.756 57.115,14.401 ZM57.804,21.460 C57.267,21.148 56.608,20.992 55.828,20.992 L51.330,20.992 L51.330,26.010 L56.010,26.010 C56.825,26.010 57.462,25.793 57.921,25.360 C58.380,24.927 58.610,24.294 58.610,23.462 C58.610,22.439 58.341,21.772 57.804,21.460 ZM102.468,15.090 C102.919,15.090 103.291,15.242 103.586,15.545 C103.881,15.848 104.028,16.225 104.028,16.676 L104.028,27.414 C104.028,27.865 103.881,28.242 103.586,28.545 C103.291,28.848 102.919,29.000 102.468,29.000 C102.017,29.000 101.645,28.848 101.350,28.545 C101.055,28.242 100.908,27.865 100.908,27.414 L100.908,16.676 C100.908,16.225 101.055,15.848 101.350,15.545 C101.645,15.242 102.017,15.090 102.468,15.090 Z" class="cls-1"/>
    <path d="M37.589,19.593 L34.080,20.909 C33.845,22.795 33.264,24.596 32.351,26.270 C32.236,26.480 32.019,26.600 31.795,26.600 C31.693,26.600 31.589,26.575 31.492,26.523 C31.185,26.355 31.072,25.970 31.239,25.663 C32.133,24.023 32.680,22.249 32.864,20.389 C32.888,20.149 33.046,19.943 33.272,19.859 L35.563,19.000 L33.272,18.141 C33.046,18.056 32.888,17.850 32.864,17.610 C32.213,11.033 26.967,5.787 20.389,5.135 C20.149,5.112 19.944,4.954 19.859,4.728 L19.000,2.437 L18.141,4.728 C18.056,4.954 17.850,5.112 17.610,5.136 C15.750,5.320 13.975,5.867 12.336,6.761 C12.029,6.930 11.644,6.816 11.477,6.509 C11.309,6.201 11.422,5.817 11.729,5.649 C13.403,4.736 15.204,4.155 17.091,3.920 L18.406,0.411 C18.500,0.164 18.736,-0.000 19.000,-0.000 C19.264,-0.000 19.500,0.164 19.593,0.411 L20.909,3.920 C27.768,4.780 33.220,10.231 34.080,17.091 L37.589,18.406 C37.836,18.500 38.000,18.736 38.000,19.000 C38.000,19.264 37.836,19.500 37.589,19.593 ZM18.367,8.233 L18.367,7.617 C17.138,7.684 15.941,7.946 14.800,8.399 C14.474,8.527 14.107,8.368 13.978,8.043 C13.849,7.718 14.008,7.350 14.333,7.221 C15.819,6.632 17.389,6.333 19.000,6.333 C19.349,6.333 19.633,6.617 19.633,6.967 L19.633,8.233 C19.633,8.583 19.349,8.867 19.000,8.867 C18.650,8.867 18.367,8.583 18.367,8.233 ZM30.682,23.903 C30.580,24.145 30.346,24.291 30.098,24.291 C30.016,24.291 29.933,24.276 29.853,24.241 C29.530,24.106 29.379,23.735 29.515,23.412 C29.785,22.768 29.998,22.091 30.147,21.400 C30.220,21.058 30.557,20.841 30.900,20.914 C31.242,20.988 31.459,21.324 31.385,21.666 C31.219,22.434 30.983,23.187 30.682,23.903 ZM21.401,7.853 C21.058,7.780 20.840,7.443 20.914,7.101 C20.987,6.760 21.324,6.543 21.666,6.614 C27.461,7.856 31.667,13.066 31.667,19.000 C31.667,19.349 31.383,19.633 31.033,19.633 L29.767,19.633 C29.417,19.633 29.133,19.349 29.133,19.000 C29.133,18.650 29.417,18.367 29.767,18.367 L30.382,18.367 C30.097,13.292 26.408,8.926 21.401,7.853 ZM22.699,15.491 L34.099,33.224 C34.261,33.475 34.225,33.803 34.014,34.014 C33.892,34.137 33.730,34.200 33.567,34.200 C33.448,34.200 33.329,34.167 33.224,34.099 L15.491,22.699 C15.415,22.650 15.349,22.585 15.301,22.509 L3.901,4.775 C3.739,4.525 3.775,4.196 3.985,3.986 C4.196,3.774 4.525,3.739 4.776,3.901 L22.509,15.300 C22.585,15.349 22.651,15.414 22.699,15.491 ZM6.542,6.542 L16.292,21.708 L31.458,31.458 L21.708,16.291 L6.542,6.542 ZM19.000,21.533 C17.603,21.533 16.467,20.397 16.467,19.000 C16.467,17.603 17.603,16.467 19.000,16.467 C20.397,16.467 21.533,17.603 21.533,19.000 C21.533,20.397 20.397,21.533 19.000,21.533 ZM19.000,17.733 C18.301,17.733 17.733,18.301 17.733,19.000 C17.733,19.699 18.301,20.267 19.000,20.267 C19.698,20.267 20.267,19.699 20.267,19.000 C20.267,18.301 19.698,17.733 19.000,17.733 ZM7.235,17.100 C7.191,17.100 7.146,17.096 7.101,17.086 C6.759,17.012 6.541,16.676 6.614,16.334 C6.779,15.571 7.015,14.818 7.318,14.097 C7.453,13.774 7.824,13.622 8.147,13.758 C8.470,13.894 8.621,14.264 8.485,14.588 C8.213,15.237 8.000,15.913 7.853,16.600 C7.789,16.897 7.527,17.100 7.235,17.100 ZM16.599,30.147 C16.942,30.220 17.160,30.557 17.086,30.899 C17.022,31.196 16.759,31.399 16.467,31.399 C16.424,31.399 16.379,31.395 16.334,31.385 C10.539,30.143 6.333,24.934 6.333,19.000 C6.333,18.650 6.617,18.367 6.967,18.367 L8.233,18.367 C8.583,18.367 8.867,18.650 8.867,19.000 C8.867,19.349 8.583,19.633 8.233,19.633 L7.618,19.633 C7.903,24.708 11.592,29.074 16.599,30.147 ZM19.000,31.667 C18.650,31.667 18.367,31.383 18.367,31.033 L18.367,29.767 C18.367,29.417 18.650,29.133 19.000,29.133 C19.349,29.133 19.633,29.417 19.633,29.767 L19.633,30.383 C20.861,30.316 22.059,30.054 23.200,29.601 C23.526,29.471 23.893,29.631 24.022,29.956 C24.151,30.281 23.992,30.649 23.667,30.779 C22.181,31.368 20.611,31.667 19.000,31.667 ZM5.649,11.730 C5.817,11.423 6.201,11.310 6.509,11.477 C6.816,11.645 6.929,12.029 6.761,12.337 C5.866,13.976 5.320,15.751 5.136,17.610 C5.112,17.850 4.954,18.056 4.728,18.141 L2.437,19.000 L4.728,19.859 C4.954,19.944 5.112,20.150 5.136,20.389 C5.787,26.967 11.033,32.213 17.610,32.864 C17.850,32.888 18.056,33.046 18.141,33.272 L19.000,35.563 L19.859,33.272 C19.944,33.046 20.149,32.888 20.389,32.864 C22.250,32.680 24.024,32.133 25.663,31.238 C25.971,31.071 26.355,31.185 26.523,31.491 C26.690,31.798 26.577,32.183 26.270,32.351 C24.597,33.263 22.796,33.845 20.909,34.080 L19.593,37.589 C19.500,37.836 19.264,38.000 19.000,38.000 C18.736,38.000 18.500,37.836 18.407,37.589 L17.091,34.080 C10.231,33.219 4.780,27.768 3.920,20.909 L0.411,19.593 C0.164,19.500 -0.000,19.264 -0.000,19.000 C-0.000,18.736 0.164,18.500 0.411,18.406 L3.920,17.091 C4.155,15.205 4.736,13.403 5.649,11.730 Z" class="cls-2"/>
  </g>
</svg>
